<?xml version="1.0" encoding="iso-8859-1"?>
<!-- Generator: Adobe Illustrator 21.1.0, SVG Export Plug-In . SVG Version: 6.00 Build 0)  -->
<svg version="1.1" id="Layer_1" xmlns="http://www.w3.org/2000/svg" xmlns:xlink="http://www.w3.org/1999/xlink" x="0px" y="0px"
	 viewBox="0 0 80.332 31.464" style="enable-background:new 0 0 80.332 31.464;" xml:space="preserve">
<g>
	<path style="fill:#4E1C78;" d="M48.644,0.701c-1.025,0-2.003,0.151-2.98,0.451c-0.978,0.299-1.856,0.45-2.689,0.45
		c-0.537,0-0.879-0.049-1.124-0.049c-0.193-0.05-0.391-0.05-0.586-0.101c-0.146-0.049-0.391-0.049-0.635-0.1
		c-0.244,0-0.685-0.05-1.319-0.05c-0.928,0-1.71,0.2-2.346,0.501c-0.586,0.351-1.075,0.801-1.417,1.401
		c-0.831,1.401-0.929,3.304-0.929,4.905v9.662c0,8.46,9.92,8.909,9.92,1.301v-4.606c0-1.151,0.099-2.602,0.929-3.454
		c0.196-0.2,0.488-0.35,0.832-0.35c1.711,0,1.66,2.803,1.66,3.954v4.606c0,7.108,9.872,6.908,9.872-0.451l-0.05-7.909
		c0-1.402-0.195-2.753-0.635-3.955c-0.781-2.403-2.346-4.354-4.593-5.406C51.43,0.952,50.111,0.701,48.644,0.701z"/>
	<path style="fill-rule:evenodd;clip-rule:evenodd;fill:#DF007C;" d="M0.001,19.973c0,3.203,2.394,4.705,4.839,4.756
		c2.492,0.049,5.032-1.602,5.032-4.856v-3.055c0-3.254-2.54-4.907-5.032-4.856c-2.445,0.049-4.839,1.551-4.839,4.756V19.973z"/>
	<path style="fill-rule:evenodd;clip-rule:evenodd;fill:#4E1C78;" d="M23.739,0.451c-2.248,0-4.154,0.401-5.717,1.202
		c-2.836,1.401-4.937,3.904-5.866,7.007c-0.927,2.954-0.927,6.157,0.344,9.011c2.003,4.454,6.498,7.008,11.239,7.059h0.195
		c4.693,0,8.993-2.755,11.045-7.009c1.466-3.053,1.515-7.158,0.098-10.212c-1.319-2.952-3.664-5.106-6.598-6.257
		C26.965,0.701,25.402,0.451,23.739,0.451z M23.739,14.917c-0.487-0.049-0.929-0.249-1.416-0.7c-0.49-0.451-0.734-1.052-0.734-1.702
		c0-0.499,0.194-1.001,0.587-1.502c0.44-0.502,0.928-0.801,1.466-0.801l0.098,0.051c0.393,0,0.733,0.048,1.026,0.2
		c0.831,0.45,1.124,1.351,1.124,2.251c0,0.552-0.244,1.052-0.636,1.502C24.813,14.668,24.326,14.917,23.739,14.917z"/>
	<path style="fill-rule:evenodd;clip-rule:evenodd;fill:#3EB6C4;" d="M72.608,11.185c0.125,0.282,0.328,1.055,0.328,1.055
		c0.206,1.058-0.213,1.688-0.485,2.031c-0.472,0.597-0.911,0.746-1.212,0.828c-0.693,0.185-1.773-0.682-1.22-1.489
		c0.86-1.255-0.487-2.461-1.947-2.308c-0.913,0.098-1.76,0.809-2.081,1.26c-1.58,2.132-1.027,4.816,1.746,6.666
		c5.231,3.489,12.332-1.231,12.582-6.877c0.137-3.111-0.821-6.911-2.304-8.036c-1.461-1.933-2.401-2.605-4.209-3.358
		c-1.343-0.558-5.121-1.84-9.423,0.001c-1.084,0.4-2.171,0.95-3.106,1.652c-2.61,1.947-4.488,4.775-4.91,8.059
		c-0.205,1.595-0.102,3.198,0.386,4.733l0.209,0.652c0.371,1.167,0.989,2.31,1.72,3.316c0.74,1.001,1.581,1.885,2.511,2.622
		c0.858,0.68,3.679,2.115,6.529,2.478c3.872,0.493,6.547-0.825,7.432-1.385c2.279-1.362,2.621-2.053,2.809-2.618
		c0.216-0.656-0.123-1.599-1.175-1.1c-0.461,0.217-1.542,0.916-1.838,1.212c-1.133,0.465-1.897,0.683-3.28,0.733
		c-1.274,0.046-2.717-0.205-3.986-0.93c-1.678-0.889-2.901-2.143-3.356-3.525c-0.769-2.325-0.191-4.617,0.991-5.779
		C66.6,9.82,68.35,9.046,70,9.387C70.948,9.585,72.125,10.224,72.608,11.185z"/>
	<path style="fill-rule:evenodd;clip-rule:evenodd;fill:#DF007C;" d="M4.881,1.562c-0.897,0-1.658,0.155-2.281,0.464
		c-1.128,0.54-1.968,1.506-2.337,2.704c-0.37,1.141-0.37,2.377,0.137,3.478c0.799,1.72,2.592,2.705,4.481,2.725h0.077
		c1.87,0,3.584-1.064,4.4-2.705c0.585-1.18,0.604-2.764,0.041-3.943c-0.527-1.139-1.463-1.97-2.632-2.415
		C6.165,1.659,5.542,1.562,4.881,1.562z"/>
	<path style="fill-rule:evenodd;clip-rule:evenodd;fill:#4E1C78;" d="M2.594,31.233c0.109,0.06,0.258,0.113,0.447,0.159
		c0.188,0.046,0.393,0.069,0.608,0.072c0.343-0.003,0.624-0.057,0.845-0.162c0.224-0.104,0.39-0.245,0.498-0.419
		c0.109-0.175,0.163-0.367,0.162-0.578c0.001-0.261-0.077-0.481-0.237-0.66c-0.157-0.181-0.402-0.33-0.731-0.45
		c-0.238-0.086-0.415-0.167-0.525-0.241c-0.113-0.074-0.168-0.169-0.166-0.283c0-0.099,0.044-0.185,0.135-0.252
		c0.089-0.067,0.225-0.103,0.408-0.108c0.184,0.004,0.34,0.024,0.471,0.062c0.132,0.037,0.234,0.075,0.308,0.115l0.188-0.674
		c-0.109-0.053-0.243-0.1-0.4-0.135c-0.156-0.038-0.341-0.057-0.55-0.059c-0.444,0.008-0.79,0.115-1.036,0.322
		c-0.246,0.209-0.37,0.475-0.377,0.799c0.007,0.268,0.099,0.492,0.282,0.672c0.183,0.178,0.429,0.32,0.741,0.428
		c0.223,0.077,0.385,0.154,0.483,0.235c0.099,0.079,0.145,0.176,0.144,0.289c0,0.122-0.05,0.222-0.15,0.292
		c-0.1,0.071-0.249,0.109-0.442,0.11c-0.184-0.003-0.355-0.026-0.517-0.072c-0.163-0.045-0.304-0.099-0.418-0.16L2.594,31.233z
		 M8.272,27.682v3.721h0.844v-1.557h1.39v1.557h0.84v-3.721h-0.84v1.431h-1.39v-1.431H8.272z M15.408,29.82l0.223-0.788l0.087-0.358
		l0.083-0.362h0.012l0.089,0.359L16,29.029l0.232,0.791H15.408z M16.354,30.449l0.287,0.954h0.908l-1.157-3.721h-1.106l-1.139,3.721
		h0.873l0.266-0.954H16.354z M21.401,28.305l0.135-0.018c0.063-0.006,0.143-0.008,0.246-0.01c0.195,0.003,0.348,0.048,0.454,0.133
		c0.11,0.086,0.163,0.214,0.167,0.385c-0.004,0.164-0.062,0.294-0.178,0.388c-0.115,0.095-0.281,0.144-0.493,0.145h-0.331V28.305z
		 M20.566,31.403h0.835v-1.469h0.252c0.171,0,0.303,0.041,0.396,0.127c0.091,0.086,0.163,0.244,0.209,0.474
		c0.055,0.228,0.104,0.419,0.149,0.564c0.043,0.147,0.08,0.249,0.109,0.304h0.865c-0.039-0.08-0.083-0.221-0.137-0.422l-0.168-0.631
		c-0.045-0.172-0.106-0.318-0.186-0.438c-0.08-0.12-0.183-0.205-0.312-0.258v-0.018c0.17-0.06,0.318-0.167,0.449-0.323
		c0.134-0.157,0.201-0.353,0.209-0.591c0-0.17-0.03-0.32-0.088-0.449c-0.059-0.129-0.143-0.237-0.255-0.325
		c-0.131-0.104-0.296-0.18-0.494-0.226c-0.198-0.047-0.436-0.068-0.71-0.068c-0.228,0-0.435,0.009-0.63,0.021
		c-0.192,0.016-0.356,0.033-0.493,0.056V31.403z M28.316,29.145h-1.374v-0.773h1.456v-0.689h-2.299v3.721h2.376v-0.688h-1.533
		v-0.884h1.374V29.145z M36.039,31.403h0.846v-3.014h1.017v-0.707h-2.864v0.707h1.002V31.403z M42.473,28.29
		c0.193,0.003,0.357,0.061,0.491,0.173c0.135,0.113,0.235,0.265,0.306,0.45c0.068,0.187,0.104,0.395,0.104,0.619
		c-0.001,0.371-0.079,0.672-0.233,0.904c-0.155,0.234-0.375,0.353-0.661,0.361c-0.285-0.006-0.508-0.123-0.667-0.349
		c-0.158-0.226-0.239-0.523-0.242-0.896c0.001-0.369,0.08-0.67,0.238-0.902C41.964,28.419,42.186,28.297,42.473,28.29z
		 M42.495,27.622c-0.37,0.004-0.688,0.09-0.961,0.259c-0.27,0.167-0.479,0.397-0.629,0.689c-0.146,0.292-0.224,0.626-0.225,1.001
		c0.001,0.357,0.07,0.678,0.209,0.961c0.139,0.285,0.336,0.511,0.599,0.678c0.259,0.166,0.576,0.25,0.947,0.255
		c0.552-0.007,0.993-0.179,1.322-0.522c0.33-0.342,0.498-0.82,0.507-1.438c-0.001-0.348-0.069-0.662-0.205-0.944
		c-0.135-0.284-0.333-0.509-0.598-0.678C43.2,27.712,42.876,27.626,42.495,27.622z M51.159,31.233
		c0.107,0.06,0.258,0.113,0.447,0.159c0.188,0.046,0.393,0.069,0.607,0.072c0.342-0.003,0.624-0.057,0.847-0.162
		c0.222-0.104,0.387-0.245,0.495-0.419c0.11-0.175,0.165-0.367,0.164-0.578c0.001-0.261-0.078-0.481-0.236-0.66
		c-0.16-0.181-0.402-0.33-0.733-0.45c-0.237-0.086-0.413-0.167-0.525-0.241c-0.11-0.074-0.167-0.169-0.166-0.283
		c0-0.099,0.047-0.185,0.136-0.252c0.09-0.067,0.227-0.103,0.409-0.108c0.182,0.004,0.339,0.024,0.47,0.062
		c0.132,0.037,0.234,0.075,0.31,0.115l0.189-0.674c-0.111-0.053-0.243-0.1-0.402-0.135c-0.156-0.038-0.341-0.057-0.55-0.059
		c-0.442,0.008-0.79,0.115-1.036,0.322c-0.244,0.209-0.371,0.475-0.374,0.799c0.003,0.268,0.096,0.492,0.28,0.672
		c0.182,0.178,0.428,0.32,0.742,0.428c0.223,0.077,0.383,0.154,0.48,0.235c0.1,0.079,0.147,0.176,0.147,0.289
		c0,0.122-0.052,0.222-0.152,0.292c-0.1,0.071-0.246,0.109-0.441,0.11c-0.182-0.003-0.354-0.026-0.518-0.072
		c-0.162-0.045-0.302-0.099-0.418-0.16L51.159,31.233z M56.836,27.682v3.721h0.846v-1.557h1.391v1.557h0.838v-3.721h-0.838v1.431
		h-1.391v-1.431H56.836z M63.597,27.682v3.721h0.847v-3.721H63.597z M68.675,31.403v-1.119l-0.008-0.856
		c-0.006-0.267-0.016-0.522-0.025-0.769l0.017-0.004c0.093,0.221,0.197,0.444,0.31,0.672c0.111,0.226,0.226,0.44,0.337,0.643
		l0.798,1.434h0.884v-3.721h-0.773v1.084c0,0.279,0.005,0.548,0.015,0.805c0.012,0.256,0.03,0.507,0.057,0.751h-0.016
		c-0.084-0.213-0.179-0.428-0.284-0.648c-0.102-0.22-0.213-0.428-0.325-0.626l-0.774-1.365H67.9v3.721H68.675z M76.265,29.145
		h-1.372v-0.773h1.457v-0.689h-2.303v3.721h2.38v-0.688h-1.534v-0.884h1.372V29.145z"/>
</g>
</svg>
