<?xml version="1.0" encoding="iso-8859-1"?>
<!-- Generator: Adobe Illustrator 21.1.0, SVG Export Plug-In . SVG Version: 6.00 Build 0)  -->
<svg version="1.1" id="Layer_1" xmlns="http://www.w3.org/2000/svg" xmlns:xlink="http://www.w3.org/1999/xlink" x="0px" y="0px"
	 viewBox="0 0 123.939 51.507" style="enable-background:new 0 0 123.939 51.507;" xml:space="preserve">
<g>
	<linearGradient id="SVGID_1_" gradientUnits="userSpaceOnUse" x1="101.2167" y1="37.6647" x2="101.2167" y2="23.4262">
		<stop  offset="0" style="stop-color:#B5D01F"/>
		<stop  offset="1" style="stop-color:#8CB625"/>
	</linearGradient>
	<path style="fill-rule:evenodd;clip-rule:evenodd;fill:url(#SVGID_1_);" d="M95.108,37.665l12.822-0.003
		c0,0,1.291-2.456,1.436-6.915v-0.405c-0.145-4.459-1.436-6.915-1.436-6.915h-7.099l-7.69,3.992
		c-0.026,0.161-0.052,0.325-0.075,0.496L95.108,37.665z M96.451,30.431c0.08-2.45,0.811-3.801,0.811-3.801h7.706
		c0,0,0.728,1.352,0.811,3.801v0.226c-0.083,2.45-0.811,3.801-0.811,3.801h-7.706c0,0-0.731-1.352-0.811-3.801V30.431z"/>
	<linearGradient id="SVGID_2_" gradientUnits="userSpaceOnUse" x1="42.4212" y1="37.6613" x2="42.4212" y2="23.4262">
		<stop  offset="0" style="stop-color:#B5D01F"/>
		<stop  offset="1" style="stop-color:#8CB625"/>
	</linearGradient>
	<path style="fill-rule:evenodd;clip-rule:evenodd;fill:url(#SVGID_2_);" d="M34.169,30.341v0.405
		c0.144,4.459,1.432,6.915,1.432,6.915h13.636c0,0,1.288-2.456,1.436-6.915v-0.405c-0.148-4.459-1.436-6.915-1.436-6.915H35.601
		C35.601,23.426,34.313,25.882,34.169,30.341z M37.755,30.431c0.084-2.45,0.811-3.801,0.811-3.801h7.707
		c0,0,0.727,1.352,0.811,3.801v0.226c-0.084,2.45-0.811,3.801-0.811,3.801h-7.707c0,0-0.727-1.352-0.811-3.801V30.431z"/>
	<linearGradient id="SVGID_3_" gradientUnits="userSpaceOnUse" x1="53.2636" y1="37.6613" x2="53.2636" y2="21.6461">
		<stop  offset="0" style="stop-color:#B5D01F"/>
		<stop  offset="1" style="stop-color:#8CB625"/>
	</linearGradient>
	<polygon style="fill-rule:evenodd;clip-rule:evenodd;fill:url(#SVGID_3_);" points="51.469,23.426 55.058,21.646 55.058,37.661 
		51.469,37.661 	"/>
	<linearGradient id="SVGID_4_" gradientUnits="userSpaceOnUse" x1="8.0337" y1="37.6613" x2="8.0337" y2="23.4262">
		<stop  offset="0" style="stop-color:#B5D01F"/>
		<stop  offset="1" style="stop-color:#8CB625"/>
	</linearGradient>
	<polygon style="fill-rule:evenodd;clip-rule:evenodd;fill:url(#SVGID_4_);" points="12.477,23.426 12.477,32.829 3.946,23.426 
		0,23.426 0,37.661 3.589,37.661 3.586,28.097 12.201,37.661 16.067,37.661 16.067,23.426 	"/>
	<linearGradient id="SVGID_5_" gradientUnits="userSpaceOnUse" x1="25.1179" y1="37.6613" x2="25.1179" y2="23.4262">
		<stop  offset="0" style="stop-color:#B5D01F"/>
		<stop  offset="1" style="stop-color:#8CB625"/>
	</linearGradient>
	<path style="fill-rule:evenodd;clip-rule:evenodd;fill:url(#SVGID_5_);" d="M16.866,30.341v0.405
		c0.144,4.459,1.432,6.915,1.432,6.915h13.637c0,0,1.287-2.456,1.435-6.915v-0.405c-0.019-0.557-0.054-1.081-0.103-1.577h-6.715
		l-2.51,3.56h5.572c-0.241,1.388-0.644,2.134-0.644,2.134h-7.707c0,0-0.727-1.352-0.811-3.801v-0.226
		c0.084-2.45,0.811-3.801,0.811-3.801h11.683c-0.428-2.089-1.01-3.203-1.01-3.203H18.298C18.298,23.426,17.01,25.882,16.866,30.341z
		"/>
	<linearGradient id="SVGID_7_" gradientUnits="userSpaceOnUse" x1="64.5742" y1="37.6647" x2="64.5742" y2="23.4262">
		<stop  offset="0" style="stop-color:#B5D01F"/>
		<stop  offset="1" style="stop-color:#8CB625"/>
	</linearGradient>
	<path style="fill-rule:evenodd;clip-rule:evenodd;fill:url(#SVGID_7_);" d="M56.851,30.341v0.405
		c0.02,0.557,0.055,1.085,0.106,1.577h13.089l2.25-3.56H60.608c0.241-1.388,0.644-2.134,0.644-2.134h10.862l-2.968-3.203H58.287
		C58.287,23.426,57,25.882,56.851,30.341z M68.611,34.458H57.637c0.425,2.09,1.011,3.203,1.011,3.203l7.814,0.003L68.611,34.458z"/>
	<polygon style="fill-rule:evenodd;clip-rule:evenodd;fill:#5B5D5F;" points="0,42.178 0,39.338 0.56,39.338 0.56,40.462 
		1.619,40.462 1.619,39.338 2.179,39.338 2.179,40.462 1.619,40.462 1.619,41.057 2.179,41.057 2.179,42.178 1.619,42.178 
		1.619,41.057 0.56,41.057 0.56,42.178 	"/>
	<polygon style="fill-rule:evenodd;clip-rule:evenodd;fill:#5B5D5F;" points="5.073,39.338 7.253,39.338 7.253,42.178 6.693,42.178 
		6.693,39.87 5.634,39.87 5.634,42.178 5.073,42.178 	"/>
	<path style="fill-rule:evenodd;clip-rule:evenodd;fill:#5B5D5F;" d="M11.766,41.586V39.87h-1.12v1.716H11.766z M12.265,39.338
		v2.839h-2.118v-2.839H12.265z"/>
	<polygon style="fill-rule:evenodd;clip-rule:evenodd;fill:#5B5D5F;" points="19.363,42.178 15.565,42.178 15.565,39.338 
		16.125,39.338 16.125,41.586 17.184,41.586 17.184,39.338 17.744,39.338 17.744,41.586 18.804,41.586 18.804,39.338 19.363,39.338 
			"/>
	<polygon style="fill-rule:evenodd;clip-rule:evenodd;fill:#5B5D5F;" points="28.39,39.87 26.771,39.87 26.771,40.462 27.83,40.462 
		27.83,41.057 26.771,41.057 26.771,41.586 28.39,41.586 28.39,42.178 26.211,42.178 26.211,39.338 28.39,39.338 	"/>
	<polygon style="fill-rule:evenodd;clip-rule:evenodd;fill:#5B5D5F;" points="31.378,42.178 31.378,41.586 30.879,41.586 
		30.879,39.338 31.378,39.338 31.378,41.586 32.498,41.586 32.498,39.338 32.997,39.338 32.997,41.586 32.498,41.586 32.498,42.178 
			"/>
	<polygon style="fill-rule:evenodd;clip-rule:evenodd;fill:#5B5D5F;" points="38.071,39.87 36.451,39.87 36.451,40.462 
		37.51,40.462 37.51,41.057 36.451,41.057 36.451,41.586 38.071,41.586 38.071,42.178 35.891,42.178 35.891,39.338 38.071,39.338 	
		"/>
	<path style="fill-rule:evenodd;clip-rule:evenodd;fill:#5B5D5F;" d="M43.144,42.178h-0.56v-1.12h-1.059v1.12h-0.56v-2.839h2.179
		v1.123h-0.56v0.596h0.56V42.178z M42.583,40.462V39.87h-1.059v0.592H42.583z"/>
	<polygon style="fill-rule:evenodd;clip-rule:evenodd;fill:#5B5D5F;" points="47.657,39.338 48.156,39.338 48.156,42.178 
		46.041,42.178 46.041,41.586 47.657,41.586 47.657,41.057 46.041,41.057 46.041,39.338 46.537,39.338 46.537,40.462 47.657,40.462 
			"/>
	<polygon style="fill-rule:evenodd;clip-rule:evenodd;fill:#5B5D5F;" points="52.669,39.338 52.669,39.87 52.171,39.87 
		52.171,42.178 51.611,42.178 51.611,39.87 51.05,39.87 51.05,39.338 	"/>
	<polygon style="fill-rule:evenodd;clip-rule:evenodd;fill:#5B5D5F;" points="57.183,39.338 57.743,39.338 57.743,42.178 
		57.183,42.178 57.183,41.057 56.127,41.057 56.127,42.178 55.566,42.178 55.566,39.338 56.127,39.338 56.127,40.462 57.183,40.462 
			"/>
	<rect x="60.64" y="39.338" style="fill-rule:evenodd;clip-rule:evenodd;fill:#5B5D5F;" width="0.496" height="2.839"/>
	<polygon style="fill-rule:evenodd;clip-rule:evenodd;fill:#5B5D5F;" points="64.439,39.338 66.615,39.338 66.615,42.178 
		66.055,42.178 66.055,39.87 64.999,39.87 64.999,42.178 64.439,42.178 	"/>
	<polygon style="fill-rule:evenodd;clip-rule:evenodd;fill:#5B5D5F;" points="70.073,41.586 71.132,41.586 71.132,41.057 
		70.569,41.057 70.569,40.462 71.692,40.462 71.692,42.178 69.512,42.178 69.512,39.338 71.692,39.338 71.692,39.87 70.073,39.87 	
		"/>
	<radialGradient id="SVGID_8_" cx="85.5237" cy="22.749" r="18.2992" gradientUnits="userSpaceOnUse">
		<stop  offset="0" style="stop-color:#397AC2"/>
		<stop  offset="1" style="stop-color:#273B90"/>
	</radialGradient>
	<polygon style="fill-rule:evenodd;clip-rule:evenodd;fill:url(#SVGID_8_);" points="96.396,51.507 91.538,26.767 123.939,9.735 
		88.242,13.598 85.866,0 78.037,14.702 64.03,16.202 	"/>
	<path style="fill-rule:evenodd;clip-rule:evenodd;fill:#FFFFFF;" d="M65.833,18.166l25.371,27.675L85.46,14.193
		c-0.57-3.354-2.431-0.811-2.431-0.811l-7.288,9.735l-9.316-4.868L65.833,18.166z"/>
	<radialGradient id="SVGID_9_" cx="81.2313" cy="26.7189" r="10.3203" gradientUnits="userSpaceOnUse">
		<stop  offset="0" style="stop-color:#397AC2"/>
		<stop  offset="1" style="stop-color:#273B90"/>
	</radialGradient>
	<path style="fill-rule:evenodd;clip-rule:evenodd;fill:url(#SVGID_9_);" d="M68.128,20.577l6.626,7.154l-6.709,9.989h4.05
		l4.877-7.597L89.201,43.33l-5.353-28.528l-7.343,10.318L68.128,20.577z M81.816,22.576v5.813l-2.73-1.561L81.816,22.576z"/>
	<path style="fill-rule:evenodd;clip-rule:evenodd;fill:#8CB625;" d="M42.371,19.646c0,0-0.991,1.601-2.118,2.125
		c-1.123,0.524-2.646,1.063-2.646,1.063h4.764h4.768c0,0-1.523-0.538-2.646-1.063C43.366,21.247,42.371,19.646,42.371,19.646z"/>
</g>
</svg>
